<?xml version="1.0" encoding="utf-8"?>
<!-- Generator: Adobe Illustrator 22.0.1, SVG Export Plug-In . SVG Version: 6.00 Build 0)  -->
<svg version="1.1" id="Layer_1" xmlns="http://www.w3.org/2000/svg" xmlns:xlink="http://www.w3.org/1999/xlink" x="0px" y="0px"
	 viewBox="0 0 1191 302.9" style="enable-background:new 0 0 1191 302.9;" xml:space="preserve">
<style type="text/css">
	.st0{fill:#FFFFFF;}
</style>
<title>Fluttr_Logo</title>
<path class="st0" d="M477.9,109.8h37.4v44.4h-37.4v126.3H427V154.3h-26.1v-44.4H427V82.1c0-47,25.8-63.5,64.1-63.5
	c15.5,0,24.5,2.6,27.4,4.2v41.9c-1.9-1-10-2.3-15.5-2.3c-15.5,0-25.1,4.2-25.1,25.1L477.9,109.8z"/>
<path class="st0" d="M544.5,22.8h50.9v257.7h-50.9V22.8z"/>
<path class="st0" d="M678.9,109.8v107.3c0,12.2,5.2,23.8,22.5,23.8c16.1,0,25.8-10,30-16.1v-115h50.9v122.4l2.9,48.3h-45.5
	l-3.9-21.6c-11,15.1-28.7,25.8-54.8,25.8c-39,0-52.8-28.4-52.8-59.3V109.8H678.9z"/>
<path class="st0" d="M926.5,109.8v44.4h-43.8v61.5c0,20.9,9.7,25.1,25.1,25.1c5.5,0,13.5-1.3,15.5-2.3v41.9
	c-2.9,1.6-11.9,4.2-27.4,4.2c-38.3,0-64.1-16.4-64.1-63.5v-67h-26.1v-44.4h26.1V61.5h50.9v48.3H926.5z"/>
<path class="st0" d="M1065.4,109.8v44.4h-43.8v61.5c0,20.9,9.7,25.1,25.1,25.1c5.5,0,13.5-1.3,15.5-2.3v41.9
	c-2.9,1.6-11.9,4.2-27.4,4.2c-38.3,0-64.1-16.4-64.1-63.5v-67h-26.1v-44.4h26.1V61.5h50.9v48.3H1065.4z"/>
<path class="st0" d="M1191,105.9v49h-8.7c-20.6,0-32.2,8.4-36.7,14.8v110.8h-50.9V158.1l-2.9-48.3h45.4l3.5,20
	c9.9-14.2,25.4-24.2,45.4-24.2C1187.8,105.5,1189.4,105.7,1191,105.9z"/>
<path class="st0" d="M315.9,224.5l-33-57.7L196.8,16.5L187.4,0l-6.8,17.7c-0.5,1.4-13.3,35.1-12.1,76.2c0.4,14.2,3.7,34.5,6.5,49.3
	L63.2,81.9l-16.9-9.3l3.8,18.9c0.3,1.8,8.2,40.1,32.2,75.3c2.3,3.4,4.8,6.8,7.4,10.1c10.9,13.6,24.9,26.6,36.6,36.5L19,207.6l-19-1
	L11.3,222c1.3,1.8,33.4,44.8,83.1,65.3c25.5,10.5,48.3,15.6,69.7,15.6c11.6,0,23.2-1.6,34.3-4.9c70.4-20.9,114-60.7,115.8-62.4
	l5.3-4.9L315.9,224.5z"/>
</svg>
  